# xmcd CD database file
#
# Track frame offsets:
#	150
#	14838
#	32783
#	48233
#	59509
#	71305
#	85341
#	99140
#	109650
#	126018
#	137942
#	152061
#	164522
#	183509
#	197289
#	209856
#	223367
#	231622
#	244032
#	253261
#
# Disc length: 3611 seconds
#
# Revision: 0
# Processed by: cddbd v1.5.1PL0 Copyright (c) Steve Scherf et al.
# Submitted via: CDex 1.51
#
DISCID=300e1914
DTITLE=Hugo Duncan - Favourites
DYEAR=1900
DGENRE=Country
TTITLE0=I'm Little But There's Lots Of Me To Love
TTITLE1=Bunch Of Thyme
TTITLE2=These Are My Mountains
TTITLE3=Seven Miles
TTITLE4=Just For Old Times Sake
TTITLE5=Will Ye Go Lassie Go
TTITLE6=Save The Last Dance For Me
TTITLE7=Story Of My Life
TTITLE8=Doonaree
TTITLE9=Paddy McGinty's Goat
TTITLE10=I'm Falling For You
TTITLE11=Funny Way Of Laughing
TTITLE12=Yesterday's Darling
TTITLE13=The Leaving Of Liverpool
TTITLE14=Mother MaCree
TTITLE15=Treat My Daughter Kindly
TTITLE16=Happy Heart
TTITLE17=The Loveliest Night Of The Year
TTITLE18=Let The World Keep On A-Turning
TTITLE19=McCarthy's Party
EXTD=
EXTT0=
EXTT1=
EXTT2=
EXTT3=
EXTT4=
EXTT5=
EXTT6=
EXTT7=
EXTT8=
EXTT9=
EXTT10=
EXTT11=
EXTT12=
EXTT13=
EXTT14=
EXTT15=
EXTT16=
EXTT17=
EXTT18=
EXTT19=
PLAYORDER=
